<?xml version="1.0" encoding="utf-8"?>
<!-- Generator: Adobe Illustrator 24.1.3, SVG Export Plug-In . SVG Version: 6.00 Build 0)  -->
<svg version="1.1" id="Capa_1" xmlns="http://www.w3.org/2000/svg" xmlns:xlink="http://www.w3.org/1999/xlink" x="0px" y="0px"
	 viewBox="0 0 446 446" style="enable-background:new 0 0 446 446;" xml:space="preserve">
<style type="text/css">
	.st0{fill:#FFFFFF;}
</style>
<g>
	<g>
		<path class="st0" d="M147.7,333.3c25.6,0,37.5-23.2,37.5-53.8c0-17.8-1.9-52.2-38.1-52.2c-33.8,0-37.5,36.5-37.5,59.1
			C109.6,323.4,132.8,333.3,147.7,333.3z"/>
		<path class="st0" d="M446,78.6H124.9L88,158.4h22.6v69.5h0.5c10.1-14.6,24-21.3,40.2-21.6c37,0,58,30.4,58,69.5
			c0,26.8-9,60.8-37.2,73.1h89.7c-23.9-9.8-37.4-34.3-37.4-65.1c0-43.1,20.8-77.5,66.8-77.5c36.5,0,50.3,26.6,52.2,50.9h-22.6
			c-2.9-18.6-13.3-29.8-33-29.8c-29,0-38.3,27.7-38.3,52.4c0,24,5.9,53.5,38.1,53.5c15.7,0,29.3-11.7,33.3-33h22.6
			c0,0.1,0,0.2,0,0.3L446,78.6z"/>
		<path class="st0" d="M321.1,348.8l4.3-9.3c-3.9,3.7-8.6,6.9-14.2,9.3H321.1z"/>
		<polygon class="st0" points="87.2,160.1 0,348.8 87.2,348.8 		"/>
		<path class="st0" d="M109.3,348.8H127c-9.1-4.7-14.1-11.8-17.1-16.6h-0.5L109.3,348.8L109.3,348.8z"/>
	</g>
</g>
</svg>
