<?xml version="1.0" encoding="utf-8"?>
<!-- Generator: Adobe Illustrator 24.1.0, SVG Export Plug-In . SVG Version: 6.00 Build 0)  -->
<svg version="1.1" id="Layer_1" xmlns="http://www.w3.org/2000/svg" xmlns:xlink="http://www.w3.org/1999/xlink" x="0px" y="0px"
	 viewBox="0 0 512 512" style="enable-background:new 0 0 512 512;" xml:space="preserve">
<style type="text/css">
	.st0{fill:#FFFFFF;}
</style>
<path class="st0" d="M75,512h167V330h-60v-60h60v-75c0-41.4,33.6-75,75-75h75v60h-60c-16.5,0-30,13.5-30,30v60h87.3l-10,60H302v182
	h135c41.4,0,75-33.6,75-75V75c0-41.4-33.6-75-75-75H75C33.6,0,0,33.6,0,75v362C0,478.4,33.6,512,75,512z M30,75
	c0-24.8,20.2-45,45-45h362c24.8,0,45,20.2,45,45v362c0,24.8-20.2,45-45,45H332V360h72.7l20-120H332v-30h90V90H317
	c-57.9,0-105,47.1-105,105v45h-60v120h60v122H75c-24.8,0-45-20.2-45-45V75z"/>
</svg>
