<?xml version="1.0" encoding="utf-8"?>
<!-- Generator: Adobe Illustrator 24.1.3, SVG Export Plug-In . SVG Version: 6.00 Build 0)  -->
<svg version="1.1"
	 id="svg22" inkscape:export-filename="G:\Users\suitedoalex\sites\linktree-logo-0.png" inkscape:export-xdpi="96" inkscape:export-ydpi="96" inkscape:version="0.92.2 (5c3e80d, 2017-08-06)" sodipodi:docname="linktree-logo.svg" xmlns:cc="http://creativecommons.org/ns#" xmlns:dc="http://purl.org/dc/elements/1.1/" xmlns:inkscape="http://www.inkscape.org/namespaces/inkscape" xmlns:rdf="http://www.w3.org/1999/02/22-rdf-syntax-ns#" xmlns:sodipodi="http://sodipodi.sourceforge.net/DTD/sodipodi-0.dtd" xmlns:svg="http://www.w3.org/2000/svg"
	 xmlns="http://www.w3.org/2000/svg" xmlns:xlink="http://www.w3.org/1999/xlink" x="0px" y="0px" viewBox="0 0 4096 4096"
	 style="enable-background:new 0 0 4096 4096;" xml:space="preserve">
<style type="text/css">
	.st0{fill:#FFFFFF;}
</style>
<sodipodi:namedview  bordercolor="#666666" borderopacity="1" gridtolerance="10" guidetolerance="10" id="namedview24" inkscape:current-layer="svg22" inkscape:cx="-46.596387" inkscape:cy="2170.5522" inkscape:pageopacity="0" inkscape:pageshadow="2" inkscape:window-height="837" inkscape:window-maximized="1" inkscape:window-width="1600" inkscape:window-x="-8" inkscape:window-y="-8" inkscape:zoom="0.10774346" objecttolerance="10" pagecolor="#ffffff" showgrid="false">
	</sodipodi:namedview>
<path id="path18" inkscape:connector-curvature="0" inkscape:export-filename="G:\Users\suitedoalex\sites\linktree-logo-4.png" inkscape:export-xdpi="10.954708" inkscape:export-ydpi="10.954708" class="st0" d="
	M1533.5,448.8c-67.7-121.8-243.7-121.8-311.4,0L57.9,2560.8c-54.2,108.3,27.1,230.2,148.9,230.2H992v798.8
	c0,81.2,67.7,148.9,148.9,148.9h460.3c81.2,0,148.9-67.7,148.9-148.9v-798.8h-216.6c-94.8,0-162.5-67.7-176-148.9
	c0-27.1,0-54.2,13.5-81.5l649.8-1177.8L1533.5,448.8z"/>
<path id="path20" inkscape:connector-curvature="0" inkscape:export-filename="G:\Users\suitedoalex\sites\linktree-logo-4.png" inkscape:export-xdpi="10.954708" inkscape:export-ydpi="10.954708" class="st0" d="
	M2562.5,448.8c67.7-121.8,243.7-121.8,311.4,0l1164.3,2112c54.2,108.3-27.1,230.2-148.9,230.2h-771.7v798.8
	c0,81.2-67.7,148.9-149.1,148.9h-487.2c-81.2,0-148.9-67.7-148.9-148.9v-798.8h216.6c94.8,0,162.5-67.7,176-148.9
	c0-27.1,0-54.2-13.5-81.5l-649.8-1177.6L2562.5,448.8z"/>
</svg>
