<?xml version="1.0" encoding="utf-8"?>
<!-- Generator: Adobe Illustrator 24.1.0, SVG Export Plug-In . SVG Version: 6.00 Build 0)  -->
<svg version="1.1" id="Capa_1" xmlns="http://www.w3.org/2000/svg" xmlns:xlink="http://www.w3.org/1999/xlink" x="0px" y="0px"
	 viewBox="0 0 512 512" style="enable-background:new 0 0 512 512;" xml:space="preserve">
<style type="text/css">
	.st0{fill:#FFFFFF;}
</style>
<g>
	<g>
		<path class="st0" d="M432,240c-5.7,0-11.3,0.6-16.7,1.8C408.1,169,346.6,112,272,112c-8.8,0-16,7.2-16,16v256c0,8.8,7.2,16,16,16
			h160c44.1,0,80-35.9,80-80C512,275.9,476.1,240,432,240z"/>
	</g>
</g>
<g>
	<g>
		<path class="st0" d="M208,144c-8.8,0-16,7.2-16,16v224c0,8.8,7.2,16,16,16s16-7.2,16-16V160C224,151.2,216.8,144,208,144z"/>
	</g>
</g>
<g>
	<g>
		<path class="st0" d="M144,208c-8.8,0-16,7.2-16,16v160c0,8.8,7.2,16,16,16s16-7.2,16-16V224C160,215.2,152.8,208,144,208z"/>
	</g>
</g>
<g>
	<g>
		<path class="st0" d="M80,208c-8.8,0-16,7.2-16,16v160c0,8.8,7.2,16,16,16s16-7.2,16-16V224C96,215.2,88.8,208,80,208z"/>
	</g>
</g>
<g>
	<g>
		<path class="st0" d="M16,256c-8.8,0-16,7.2-16,16v96c0,8.8,7.2,16,16,16s16-7.2,16-16v-96C32,263.2,24.8,256,16,256z"/>
	</g>
</g>
</svg>
