<?xml version="1.0" encoding="utf-8"?>
<!-- Generator: Adobe Illustrator 24.1.0, SVG Export Plug-In . SVG Version: 6.00 Build 0)  -->
<svg version="1.1" id="Capa_1" xmlns="http://www.w3.org/2000/svg" xmlns:xlink="http://www.w3.org/1999/xlink" x="0px" y="0px"
	 viewBox="0 0 186.8 186.8" style="enable-background:new 0 0 186.8 186.8;" xml:space="preserve">
<style type="text/css">
	.st0{fill:#FFFFFF;}
</style>
<g>
	<path class="st0" d="M128.9,121c-31.1-14.4-74.6-8-76.5-7.7c-4.1,0.6-6.9,4.4-6.3,8.5s4.4,6.9,8.5,6.3c0.4-0.1,40.9-6,67.9,6.5
		c1,0.5,2.1,0.7,3.1,0.7c2.8,0,5.5-1.6,6.8-4.4C134.3,127.2,132.6,122.7,128.9,121z"/>
	<path class="st0" d="M137.6,94c-35.3-16.3-84.8-9.1-86.9-8.8c-4.1,0.6-6.9,4.4-6.3,8.5c0.6,4.1,4.4,6.9,8.5,6.3
		c0.5-0.1,47.2-6.9,78.4,7.6c1,0.5,2.1,0.7,3.1,0.7c2.8,0,5.5-1.6,6.8-4.4C143,100.1,141.4,95.7,137.6,94z"/>
	<path class="st0" d="M143.5,65.7c-39-18-93.8-10-96.1-9.7c-4.1,0.6-6.9,4.4-6.3,8.5s4.4,6.9,8.5,6.3c0.5-0.1,52.7-7.7,87.6,8.5
		c1,0.5,2.1,0.7,3.1,0.7c2.8,0,5.5-1.6,6.8-4.4C148.9,71.9,147.2,67.5,143.5,65.7z"/>
	<path class="st0" d="M93.4,0C41.9,0,0,41.9,0,93.4c0,51.5,41.9,93.4,93.4,93.4c51.5,0,93.4-41.9,93.4-93.4
		C186.8,41.9,144.9,0,93.4,0z M93.4,171.8c-43.2,0-78.4-35.2-78.4-78.4C15,50.2,50.2,15,93.4,15c43.2,0,78.4,35.2,78.4,78.4
		C171.8,136.7,136.7,171.8,93.4,171.8z"/>
</g>
</svg>
